<svg version="1.1" xmlns="http://www.w3.org/2000/svg" xmlns:xlink="http://www.w3.org/1999/xlink" width="1045.73684" height="431.6053" viewBox="0,0,1045.73684,431.6053"><g transform="translate(338.5304,46.95363)"><g stroke="none" stroke-miterlimit="10"><path d="M-118.33697,-12.74742c32.06805,-4.78571 63.8106,-12.70313 95.95083,-16.28528c33.5768,-3.73076 67.54713,-11.15636 101.38574,-11.35742c14.99176,-0.33243 29.70356,-2.79204 44.63359,-3.96924c19.99307,-1.57641 40.04168,-1.47889 60.05688,-2.17639c33.57197,-1.16739 68.71458,0.22113 102.22284,2.79869c34.43963,2.66221 68.7685,0.96466 102.85196,7.72843c32.35581,6.42278 66.255,9.18115 99.19702,9.94902c24.68762,3.55326 20.06481,34.45545 23.21303,52.80286c1.11434,6.49426 3.99925,13.41306 3.99925,19.99535c6.07492,18.22477 -4.27235,41.61378 -1.04799,56.77205c2.46132,11.57105 3.25643,24.15759 4.07888,36.54521c0.00894,32.82087 3.15731,64.6067 7.11964,97.08967c1.07635,18.63088 2.77788,42.89596 -3.2829,60.88578c-1.2827,3.80735 -6.16779,8.0094 -6.91551,11.73572c-1.24259,6.19254 4.14148,13.43788 7.09764,18.38525c4.09725,1.26007 6.87412,4.99711 10.55897,6.73039c9.42789,4.4347 66.44518,4.39067 79.98885,4.68194c8.95707,0.19263 18.17469,0.8413 27.38067,1.14042c6.73791,-1.06285 13.48018,-2.21774 20.24271,-3.04652c6.54175,-0.80172 13.29315,-0.84483 19.78409,-1.97263c5.87334,-1.02049 11.74302,-2.85558 17.54346,-4.37121c0.81593,-0.40071 1.6463,-0.66097 2.50005,-0.63403l3.82442,-0.95374c0.21004,-0.05727 0.43109,-0.08785 0.65929,-0.08785c1.38071,0 2.5,1.11929 2.5,2.5c0,1.1246 -0.74256,2.07576 -1.76412,2.38994l-2.94531,0.98177l-0.07514,-0.22541l-0.54211,0.13519c-16.78014,10.99267 -40.40573,11.39609 -62.25736,10.42853c-0.74245,0.11571 -1.48486,0.22996 -2.22724,0.34218c-34.60685,5.23127 -69.21369,10.46254 -103.82054,15.6938c-33.89062,5.123 -67.7287,9.25356 -101.80298,12.95729c-33.72898,3.66619 -63.46976,2.12399 -97.23252,1.72372c-34.85344,-0.41349 -70.45258,1.18209 -105.15335,-2.07111c-14.71434,-1.37947 -30.5897,-1.77814 -43.63604,-8.0462c-1.96452,-0.94385 -9.0454,1.88028 -10.8591,2.18223c-12.76321,2.12483 -26.20897,3.50999 -39.1225,4.23072c-34.35578,1.90865 -68.71032,3.62875 -103.08348,5.19328c-18.0279,0.82056 -36.60968,0.59337 -54.45533,3.52878c-2.07599,0.34148 -3.43142,3.28361 -5.52288,3.05529c-6.36229,-0.69455 -10.48237,-26.90296 -10.3097,-31.45671c3.07078,-2.64712 -8.4425,-13.58252 -7.1361,-21.56103c1.49573,-9.13481 6.89132,-17.7897 10.09953,-26.34539c3.68715,-9.83296 4.94564,-20.64935 8.08706,-30.69456c2.88975,-32.04033 0.7981,-64.30207 -1.91846,-96.32491c-2.91598,-34.39956 -4.04786,-68.96438 -6.83951,-103.39454c-2.30387,-28.41421 -6.40066,-57.05035 -10.185,-85.32725c-0.61979,0.40042 -0.83376,1.34591 -1.48349,1.73101c-1.81356,1.07491 -4.19847,0.90504 -6,2c-0.91525,0.55628 -1.57175,1.45538 -2.35762,2.18307c-15.67955,0.75412 -31.53054,0.22736 -47.17915,-0.91093c-4.57663,-0.33291 -9.88884,-1.3245 -15.40258,-2.29357c-2.45855,0.36601 -4.91897,0.71336 -7.38158,1.03866c-23.02283,3.0412 -46.04265,6.08196 -69.04923,9.22677c-16.63434,3.42086 -33.3385,6.47413 -50.12725,9.57473c-22.11536,4.08352 -45.21015,9.44715 -67.70364,10.55207c-4.08188,0.20051 -15.31486,0.55073 -19.68649,-2.56555l-3.79243,0.50566c-0.12112,0.01803 -0.24507,0.02737 -0.3712,0.02737c-1.38071,0 -2.5,-1.11929 -2.5,-2.5c0,-1.10966 0.72296,-2.05046 1.72356,-2.37708l2.68202,-0.94558l0.18401,0.52193l2.53614,-0.33815c33.74697,-4.4996 67.67687,-7.72586 101.37741,-12.52958c11.6002,-1.65351 23.20509,-3.26708 34.81336,-4.85412c15.45463,-3.18151 30.84929,-6.68239 46.19789,-10.83565c8.89593,-2.87707 20.06481,-1.2587 30.67903,0.50685zM-281.09738,13.89341c-10.65751,1.24018 -21.31689,2.46828 -31.96527,3.77335c0.21777,-0.00544 0.43637,-0.01375 0.65582,-0.02512c10.36626,-0.53711 20.85233,-1.96609 31.30945,-3.74822zM-145.36947,-9.10711c2.0712,-0.27435 4.14244,-0.54846 6.21372,-0.82241c-2.17182,0.09597 -4.25647,0.353 -6.21372,0.82241z" fill="#000000" stroke-width="0.5"/><text transform="translate(21.70645,49.13907) scale(0.5,0.5)" font-size="40" xml:space="preserve" fill="#ffffff" stroke-width="1" font-family="Sans Serif" font-weight="normal" text-anchor="start"><tspan x="0" dy="0">stäng den här flicken genast!!!</tspan></text></g></g></svg>